<?xml version="1.0" standalone="no"?>
<!DOCTYPE svg PUBLIC "-//W3C//DTD SVG 20010904//EN"
 "http://www.w3.org/TR/2001/REC-SVG-20010904/DTD/svg10.dtd">
<svg version="1.0" xmlns="http://www.w3.org/2000/svg"
 width="600px" height="400px" viewBox="0 0 600.000000 400.000000"
 preserveAspectRatio="xMidYMid meet">

<g transform="translate(0.000000,400.000000) scale(0.100000,-0.100000)"
fill="#000000" stroke="none">
<path d="M3325 3244 c-72 -37 -101 -92 -93 -175 12 -123 153 -187 264 -120 36
22 74 93 74 139 0 62 -42 126 -102 158 -36 19 -106 18 -143 -2z"/>
<path d="M2704 3093 c-12 -2 -39 -18 -59 -36 -33 -29 -37 -39 -45 -102 -5 -38
-9 -162 -10 -275 0 -306 -19 -429 -90 -575 -68 -141 -180 -255 -317 -324 -69
-35 -174 -74 -181 -66 -4 4 244 444 333 591 l25 42 -174 7 c-256 11 -331 -2
-372 -62 -18 -26 -19 -50 -19 -334 0 -342 0 -341 69 -380 40 -23 48 -24 342
-29 231 -4 305 -8 317 -18 9 -8 21 -12 26 -10 5 1 38 46 73 98 88 132 319 440
329 440 15 0 10 -79 -7 -113 -9 -18 -61 -93 -114 -167 -54 -74 -130 -184 -169
-244 l-71 -110 0 -75 0 -76 50 89 c60 107 112 185 279 416 230 317 293 431
317 575 l7 40 -30 -27 c-38 -36 -44 -35 -32 4 5 18 9 88 9 156 0 98 -4 135
-21 185 -55 164 -144 270 -281 336 -81 38 -142 53 -184 44z"/>
<path d="M3626 2334 c-13 -54 -93 -209 -144 -279 -27 -38 -201 -225 -387 -415
-345 -353 -413 -435 -454 -545 -51 -136 -52 -266 -2 -316 23 -23 39 -28 104
-34 123 -12 547 -1 579 15 16 7 37 32 49 57 20 41 22 67 30 366 8 341 15 407
55 527 37 108 86 183 189 286 74 75 106 99 176 133 88 42 193 73 289 86 l55 7
-335 -337 -335 -337 295 5 c164 3 311 11 332 17 24 7 44 22 57 44 20 32 21 47
21 347 0 346 2 333 -65 375 -26 17 -55 19 -266 23 l-236 3 -7 -28z"/>
<path d="M2995 603 c-4 -10 -18 -48 -30 -85 -22 -64 -23 -68 -6 -68 10 0 21 9
24 20 4 15 14 20 37 20 23 0 33 -5 37 -20 3 -11 13 -20 23 -20 17 0 17 6 -9
83 -22 63 -32 83 -48 85 -12 2 -23 -4 -28 -15z m39 -45 c10 -38 7 -48 -15 -48
-17 0 -20 4 -15 23 3 12 6 28 6 35 0 21 17 13 24 -10z"/>
<path d="M2460 548 c0 -35 4 -68 8 -75 13 -21 60 -33 86 -23 34 13 46 40 46
104 0 43 -3 56 -15 56 -11 0 -15 -12 -15 -51 0 -59 -13 -89 -40 -89 -27 0 -40
30 -40 89 0 39 -4 51 -15 51 -12 0 -15 -14 -15 -62z"/>
<path d="M2640 530 c0 -73 2 -80 20 -80 16 0 20 7 20 35 0 33 2 35 35 35 33 0
35 -2 35 -35 0 -24 5 -35 15 -35 12 0 15 16 15 80 0 64 -3 80 -15 80 -10 0
-15 -10 -15 -30 0 -28 -3 -30 -35 -30 -32 0 -35 2 -35 30 0 23 -4 30 -20 30
-18 0 -20 -7 -20 -80z"/>
<path d="M2830 530 l0 -80 45 0 c25 0 45 5 45 10 0 6 -13 10 -30 10 -25 0 -30
4 -30 25 0 21 5 25 30 25 20 0 30 5 30 15 0 10 -10 15 -30 15 -23 0 -30 4 -30
20 0 16 7 20 30 20 17 0 30 5 30 10 0 6 -20 10 -45 10 l-45 0 0 -80z"/>
<path d="M3130 530 l0 -80 50 0 c28 0 50 5 50 10 0 6 -16 10 -35 10 l-35 0 0
70 c0 56 -3 70 -15 70 -12 0 -15 -16 -15 -80z"/>
<path d="M3250 600 c0 -5 9 -10 20 -10 18 0 20 -7 20 -70 0 -60 3 -70 18 -70
14 0 17 10 17 67 0 63 2 68 23 71 46 7 20 22 -38 22 -33 0 -60 -4 -60 -10z"/>
<path d="M3400 530 c0 -64 3 -80 15 -80 11 0 15 11 15 36 0 35 1 35 38 32 35
-3 37 -5 37 -35 0 -25 4 -33 17 -33 16 0 18 10 18 80 0 71 -2 80 -18 80 -15 0
-18 -6 -14 -30 4 -29 3 -30 -37 -30 -39 0 -41 2 -41 30 0 20 -5 30 -15 30 -12
0 -15 -16 -15 -80z"/>
</g>
</svg>
